<svg width="25" height="24" viewBox="0 0 25 24" fill="none" xmlns="http://www.w3.org/2000/svg">
<path fill-rule="evenodd" clip-rule="evenodd" d="M8.94995 7.00151L8.94995 6C8.94995 3.92893 10.6289 2.25 12.7 2.25C14.771 2.25 16.45 3.92893 16.45 6V7L16.4499 7.00151C19.1343 7.0136 20.5605 7.1222 21.3605 8.09803C22.2607 9.19607 21.9287 10.8563 21.2646 14.1767L20.6646 17.1767C20.2028 19.4856 19.9719 20.6401 19.1425 21.32C18.3131 22 17.1357 22 14.7811 22H10.6188C8.26412 22 7.08681 22 6.25738 21.32C5.42794 20.6401 5.19705 19.4856 4.73527 17.1767L4.13527 14.1767C3.47119 10.8563 3.13914 9.19607 4.03932 8.09803C4.83931 7.12219 6.26557 7.0136 8.94995 7.00151ZM10.45 6C10.45 4.75736 11.4573 3.75 12.7 3.75C13.9426 3.75 14.95 4.75736 14.95 6V7H10.45V6ZM15.6999 11C16.2522 11 16.6999 10.5523 16.6999 10C16.6999 9.44772 16.2522 9 15.6999 9C15.1476 9 14.6999 9.44772 14.6999 10C14.6999 10.5523 15.1476 11 15.6999 11ZM10.6999 10C10.6999 10.5523 10.2522 11 9.69993 11C9.14765 11 8.69993 10.5523 8.69993 10C8.69993 9.44772 9.14765 9 9.69993 9C10.2522 9 10.6999 9.44772 10.6999 10Z" fill="#0A0B0D"/>
</svg>
