<svg width="20" height="21" viewBox="0 0 20 21" fill="none" xmlns="http://www.w3.org/2000/svg">
    <path d="M18.3083 15.5003V16.3337C18.3083 17.7087 18.3083 18.8337 15.8083 18.8337H4.1416C1.6416 18.8337 1.6416 17.7087 1.6416 16.3337V15.5003C1.6416 15.042 2.0166 14.667 2.47493 14.667H17.4749C17.9333 14.667 18.3083 15.042 18.3083 15.5003Z" fill="#34A853"/>
    <path d="M12.0084 4.81648C12.0501 4.64981 12.0751 4.49148 12.0834 4.31648C12.1084 3.34981 11.5168 2.49981 10.5834 2.24981C9.18343 1.86648 7.91676 2.91648 7.91676 4.24981C7.91676 4.44981 7.94176 4.63314 7.99176 4.81648C4.98343 5.45814 2.7251 8.13314 2.7251 11.3331V12.5831C2.7251 13.0415 3.1001 13.4165 3.55843 13.4165H16.4334C16.8918 13.4165 17.2668 13.0415 17.2668 12.5831V11.3331C17.2668 8.13314 15.0168 5.46648 12.0084 4.81648ZM12.5001 10.2915H7.5001C7.15843 10.2915 6.8751 10.0081 6.8751 9.66648C6.8751 9.32481 7.15843 9.04148 7.5001 9.04148H12.5001C12.8418 9.04148 13.1251 9.32481 13.1251 9.66648C13.1251 10.0081 12.8418 10.2915 12.5001 10.2915Z" fill="#34A853"/>
</svg>
