<svg width="25" height="24" viewBox="0 0 25 24" fill="none" xmlns="http://www.w3.org/2000/svg">
<path d="M11.7498 2C7.53145 2.00411 5.34888 2.07958 3.96423 3.46423C2.57958 4.84888 2.50411 7.03145 2.5 11.2498H7.41352C7.06255 10.8114 6.80031 10.2943 6.65731 9.72228C6.11906 7.56926 8.06926 5.61906 10.2223 6.15731C10.7943 6.30031 11.3114 6.56255 11.7498 6.91352V2Z" fill="#0A0B0D"/>
<path d="M2.5 12.7498C2.50411 16.9681 2.57958 19.1506 3.96423 20.5353C5.34888 21.9199 7.53145 21.9954 11.7498 21.9995V14.1234C10.9701 15.6807 9.3598 16.7498 7.49976 16.7498C7.08555 16.7498 6.74976 16.414 6.74976 15.9998C6.74976 15.5856 7.08555 15.2498 7.49976 15.2498C9.03655 15.2498 10.3242 14.1831 10.6628 12.7498H2.5Z" fill="#0A0B0D"/>
<path d="M13.2498 21.9995C17.4681 21.9954 19.6506 21.9199 21.0353 20.5353C22.4199 19.1506 22.4954 16.9681 22.4995 12.7498H14.3367C14.6753 14.1831 15.963 15.2498 17.4998 15.2498C17.914 15.2498 18.2498 15.5856 18.2498 15.9998C18.2498 16.414 17.914 16.7498 17.4998 16.7498C15.6397 16.7498 14.0294 15.6807 13.2498 14.1234V21.9995Z" fill="#0A0B0D"/>
<path d="M22.4995 11.2498C22.4954 7.03145 22.4199 4.84888 21.0353 3.46423C19.6506 2.07958 17.4681 2.00411 13.2498 2V6.91352C13.6882 6.56255 14.2053 6.30031 14.7772 6.15731C16.9303 5.61906 18.8805 7.56926 18.3422 9.72228C18.1992 10.2943 17.937 10.8114 17.586 11.2498H22.4995Z" fill="#0A0B0D"/>
<path d="M9.85847 7.61252C10.97 7.8904 11.7498 8.88911 11.7498 10.0348V11.2498H10.5348C9.38911 11.2498 8.3904 10.47 8.11252 9.35847C7.84891 8.30403 8.80403 7.34891 9.85847 7.61252Z" fill="#0A0B0D"/>
<path d="M13.2498 10.0348V11.2498H14.4647C15.6104 11.2498 16.6091 10.47 16.887 9.35847C17.1506 8.30403 16.1955 7.34891 15.1411 7.61252C14.0295 7.8904 13.2498 8.88911 13.2498 10.0348Z" fill="#0A0B0D"/>
</svg>
