<svg width="74" height="40" viewBox="0 0 74 40" fill="none" xmlns="http://www.w3.org/2000/svg">
<path d="M34.0852 10H39.7148C41.5525 10 42.4714 10 43.1942 10.4443C43.3189 10.521 43.4378 10.6067 43.55 10.7007C44.2002 11.2456 44.4911 12.1173 45.0728 13.8605L45.1086 13.9679C45.4274 14.9232 45.5868 15.4008 45.4184 15.762C45.3653 15.8759 45.2911 15.9788 45.1998 16.0653C44.9105 16.3394 44.407 16.3394 43.4 16.3394L42.9738 19.25H30.826L30.3999 16.3394C29.3929 16.3394 28.8894 16.3394 28.6001 16.0653C28.5088 15.9788 28.4347 15.8759 28.3815 15.762C28.2132 15.4008 28.3725 14.9232 28.6913 13.9679L28.7271 13.8606C29.3088 12.1173 29.5997 11.2456 30.2499 10.7007C30.3621 10.6067 30.4811 10.521 30.6058 10.4443C31.3285 10 32.2474 10 34.0852 10Z" fill="#0A0B0D"/>
<path d="M42.2417 24.25H31.5581L31.0456 20.75H42.7542L42.2417 24.25Z" fill="#0A0B0D"/>
<path d="M37.9429 30H35.8569C34.2083 30 33.3839 30 32.8206 29.5132C32.2574 29.0264 32.1379 28.2107 31.8991 26.5794L31.7777 25.75H42.0221L41.9007 26.5794C41.6619 28.2107 41.5424 29.0264 40.9792 29.5132C40.4159 30 39.5916 30 37.9429 30Z" fill="#0A0B0D"/>
</svg>
