<svg width="25" height="24" viewBox="0 0 25 24" fill="none" xmlns="http://www.w3.org/2000/svg">
    <path fill-rule="evenodd" clip-rule="evenodd" d="M3.71447 20.5355C5.17893 22 7.53595 22 12.25 22C16.964 22 19.3211 22 20.7855 20.5355C22.25 19.0711 22.25 16.714 22.25 12C22.25 7.28595 22.25 4.92893 20.7855 3.46447C19.3211 2 16.964 2 12.25 2C7.53595 2 5.17893 2 3.71447 3.46447C2.25 4.92893 2.25 7.28595 2.25 12C2.25 16.714 2.25 19.0711 3.71447 20.5355ZM19 16C19 16.4142 18.6642 16.75 18.25 16.75H6.25C5.83579 16.75 5.5 16.4142 5.5 16C5.5 15.5858 5.83579 15.25 6.25 15.25H18.25C18.6642 15.25 19 15.5858 19 16ZM18.25 12.75C18.6642 12.75 19 12.4142 19 12C19 11.5858 18.6642 11.25 18.25 11.25H6.25C5.83579 11.25 5.5 11.5858 5.5 12C5.5 12.4142 5.83579 12.75 6.25 12.75H18.25ZM19 8C19 8.41421 18.6642 8.75 18.25 8.75H6.25C5.83579 8.75 5.5 8.41421 5.5 8C5.5 7.58579 5.83579 7.25 6.25 7.25H18.25C18.6642 7.25 19 7.58579 19 8Z" fill="#0A0B0D"/>
</svg>
