<svg width="25" height="24" viewBox="0 0 25 24" fill="none" xmlns="http://www.w3.org/2000/svg">
    <path fill-rule="evenodd" clip-rule="evenodd" d="M2.25 12C2.25 7.28595 2.25 4.92893 3.71447 3.46447C5.17893 2 7.53595 2 12.25 2C16.964 2 19.3211 2 20.7855 3.46447C22.25 4.92893 22.25 7.28595 22.25 12C22.25 16.714 22.25 19.0711 20.7855 20.5355C19.3211 22 16.964 22 12.25 22C7.53595 22 5.17893 22 3.71447 20.5355C2.25 19.0711 2.25 16.714 2.25 12ZM5.25 8.49982V7.5C5.25 6.67157 5.92157 6 6.75 6H17.75C18.5784 6 19.25 6.67157 19.25 7.5V8.49982C18.8322 8.18597 18.3128 8 17.75 8H6.75C6.1872 8 5.66783 8.18597 5.25 8.49982ZM5.25 10.5V11.4998C5.66783 11.186 6.1872 11 6.75 11H17.75C18.3128 11 18.8322 11.186 19.25 11.4998V10.5C19.25 9.67157 18.5784 9 17.75 9H6.75C5.92157 9 5.25 9.67157 5.25 10.5ZM20.25 14.2502C20.6642 14.2502 21 14.5859 21 15.0002C21 15.4144 20.6642 15.7502 20.25 15.7502H17.9069C17.0282 15.7502 16.7977 15.7634 16.6001 15.8453C16.4024 15.9272 16.2301 16.0807 15.6088 16.7021L15.3043 17.0066C14.8723 17.4393 14.5311 17.7811 14.0967 17.9864C14.0158 18.0247 13.933 18.059 13.8487 18.0892C13.3964 18.2511 12.9134 18.2507 12.302 18.2502L12.1962 18.2502L12.084 18.2502C11.4377 18.2508 10.9271 18.2512 10.4535 18.0718C10.3653 18.0384 10.2789 18.0005 10.1946 17.9582C9.74191 17.7311 9.39654 17.3551 8.95937 16.879L8.84805 16.7579C8.25971 16.1184 8.09554 15.9591 7.90508 15.8694C7.88492 15.8599 7.8645 15.8509 7.84386 15.8425C7.64887 15.7631 7.42044 15.7502 6.55147 15.7502H4.25C3.83579 15.7502 3.5 15.4144 3.5 15.0002C3.5 14.5859 3.83579 14.2502 4.25 14.2502L5.27051 14.2501V13.2503C5.38939 12.5407 6.00646 12 6.74983 12H17.7498C18.4932 12 19.1103 12.5407 19.2291 13.2503V14.2501L20.25 14.2502Z" fill="#0A0B0D"/>
</svg>
