<svg width="37" height="36" viewBox="0 0 37 36" fill="none" xmlns="http://www.w3.org/2000/svg">
    <path fill-rule="evenodd" clip-rule="evenodd" d="M5.6967 5.1967C3.5 7.3934 3.5 10.9289 3.5 18C3.5 25.0711 3.5 28.6066 5.6967 30.8033C7.8934 33 11.4289 33 18.5 33C25.5711 33 29.1066 33 31.3033 30.8033C33.5 28.6066 33.5 25.0711 33.5 18C33.5 10.9289 33.5 7.3934 31.3033 5.1967C29.1066 3 25.5711 3 18.5 3C11.4289 3 7.8934 3 5.6967 5.1967ZM11.375 18C11.375 14.065 14.565 10.875 18.5 10.875C22.435 10.875 25.625 14.065 25.625 18C25.625 21.935 22.435 25.125 18.5 25.125C14.565 25.125 11.375 21.935 11.375 18ZM13.625 18C13.625 15.3076 15.8076 13.125 18.5 13.125C21.1924 13.125 23.375 15.3076 23.375 18C23.375 20.6924 21.1924 22.875 18.5 22.875C15.8076 22.875 13.625 20.6924 13.625 18Z" fill="#0A0B0D"/>
</svg>
