<svg width="24" height="24" viewBox="0 0 24 24" fill="none" xmlns="http://www.w3.org/2000/svg">
    <path d="M8.96173 18.9111L8.34265 19.6964H8.34265L8.96173 18.9111ZM12 5.50088L11.2795 6.19434C11.468 6.3902 11.7282 6.50088 12 6.50088C12.2718 6.50088 12.532 6.3902 12.7205 6.19434L12 5.50088ZM15.0383 18.9111L14.4192 18.1258H14.4192L15.0383 18.9111ZM8.96173 18.9111L9.58082 18.1258C8.05033 16.9193 6.42071 15.7728 5.12521 14.314C3.864 12.8938 3 11.2567 3 9.13734H2H1C1 11.8809 2.14571 13.9709 3.62979 15.6421C5.07958 17.2746 6.93083 18.5835 8.34265 19.6964L8.96173 18.9111ZM2 9.13734H3C3 7.08001 4.16214 5.3677 5.72829 4.65181C7.2314 3.96473 9.28552 4.12266 11.2795 6.19434L12 5.50088L12.7205 4.80741C10.2146 2.20392 7.26876 1.74862 4.89683 2.83283C2.58794 3.88823 1 6.33174 1 9.13734H2ZM8.96173 18.9111L8.34265 19.6964C8.85258 20.0984 9.41592 20.5401 9.99069 20.876C10.5651 21.2117 11.2461 21.5002 12 21.5002V20.5002V19.5002C11.7539 19.5002 11.4349 19.4035 10.9997 19.1492C10.565 18.8951 10.1091 18.5423 9.58082 18.1258L8.96173 18.9111ZM15.0383 18.9111L15.6574 19.6964C17.0692 18.5835 18.9204 17.2746 20.3702 15.6421C21.8543 13.9709 23 11.8809 23 9.13734H22H21C21 11.2567 20.136 12.8938 18.8748 14.314C17.5793 15.7728 15.9497 16.9193 14.4192 18.1258L15.0383 18.9111ZM22 9.13734H23C23 6.33174 21.4121 3.88823 19.1032 2.83283C16.7312 1.74862 13.7854 2.20392 11.2795 4.80741L12 5.50088L12.7205 6.19434C14.7145 4.12266 16.7686 3.96473 18.2717 4.65181C19.8379 5.3677 21 7.08001 21 9.13734H22ZM15.0383 18.9111L14.4192 18.1258C13.8909 18.5423 13.435 18.8951 13.0003 19.1492C12.5651 19.4035 12.2461 19.5002 12 19.5002V20.5002V21.5002C12.7539 21.5002 13.4349 21.2117 14.0093 20.876C14.5841 20.5401 15.1474 20.0984 15.6574 19.6964L15.0383 18.9111Z" fill="#979797"/>
</svg>
