<svg width="34" height="34" viewBox="0 0 34 34" fill="none" xmlns="http://www.w3.org/2000/svg">
<path d="M8.74791 13.8037L8.41669 17.4472C8.36763 17.9868 8.34289 18.2588 8.3878 18.5171C8.42792 18.7478 8.50806 18.9699 8.62496 19.1729C8.7563 19.4009 8.95043 19.595 9.33647 19.981L14.512 25.1565C15.299 25.9436 15.6927 26.3373 16.148 26.4852C16.5496 26.6157 16.983 26.616 17.3847 26.4855C17.8414 26.3371 18.2382 25.9408 19.0302 25.1488L22.99 21.189C23.7821 20.3969 24.1774 20.0011 24.3258 19.5444C24.4563 19.1427 24.4555 18.7098 24.325 18.3082C24.1766 17.8515 23.7819 17.4557 22.9898 16.6637L17.8271 11.501C17.4375 11.1114 17.2427 10.9166 17.0136 10.7847C16.8107 10.6678 16.5886 10.5873 16.3579 10.5472C16.0974 10.5019 15.823 10.5268 15.2743 10.5767L11.6445 10.9066C10.6997 10.9925 10.2271 11.0357 9.85738 11.2412C9.53145 11.4225 9.26277 11.6912 9.08152 12.0171C8.87698 12.3849 8.83432 12.8542 8.74929 13.7896L8.74791 13.8037Z" stroke="#757575" stroke-width="2" stroke-linecap="round" stroke-linejoin="round"/>
<path d="M13.7126 15.8717C14.1031 15.4811 14.1031 14.848 13.7126 14.4574C13.3221 14.0669 12.6884 14.0669 12.2979 14.4574C11.9074 14.848 11.907 15.481 12.2975 15.8715C12.6881 16.262 13.3221 16.2622 13.7126 15.8717Z" stroke="#757575" stroke-width="2" stroke-linecap="round" stroke-linejoin="round"/>
<rect x="15" y="1.15918" width="18" height="18" rx="9" fill="#FF2C20"/>
<rect x="15" y="1.15918" width="18" height="18" rx="9" stroke="white" stroke-width="2"/>
<path d="M23.9782 14.2785C23.3418 14.2785 22.775 14.1691 22.2779 13.9504C21.7836 13.7288 21.3929 13.4248 21.106 13.0384C20.8219 12.6492 20.6756 12.2004 20.6671 11.6919H22.525C22.5364 11.9049 22.606 12.0924 22.7338 12.2544C22.8645 12.4134 23.0378 12.537 23.2537 12.6251C23.4696 12.7132 23.7125 12.7572 23.9824 12.7572C24.2637 12.7572 24.5123 12.7075 24.7282 12.608C24.9441 12.5086 25.1131 12.3708 25.2353 12.1947C25.3574 12.0186 25.4185 11.8154 25.4185 11.5853C25.4185 11.3524 25.3532 11.1464 25.2225 10.9674C25.0946 10.7856 24.91 10.6436 24.6685 10.5413C24.4299 10.439 24.1458 10.3879 23.8162 10.3879H23.0023V9.03276H23.8162C24.0946 9.03276 24.3404 8.98446 24.5534 8.88787C24.7694 8.79128 24.937 8.65776 25.0563 8.4873C25.1756 8.31401 25.2353 8.1123 25.2353 7.88219C25.2353 7.66344 25.1827 7.47168 25.0776 7.30691C24.9753 7.13929 24.8304 7.00861 24.6429 6.91486C24.4583 6.82111 24.2424 6.77424 23.9952 6.77424C23.7452 6.77424 23.5165 6.81969 23.3091 6.9106C23.1017 6.99867 22.9355 7.12509 22.8105 7.28986C22.6855 7.45463 22.6188 7.64782 22.6103 7.86941H20.8418C20.8503 7.36657 20.9938 6.92338 21.2722 6.53986C21.5506 6.15634 21.9256 5.85662 22.3972 5.64071C22.8716 5.42196 23.4071 5.31259 24.0037 5.31259C24.606 5.31259 25.133 5.42196 25.5847 5.64071C26.0364 5.85946 26.3873 6.15492 26.6373 6.52708C26.8901 6.8964 27.0151 7.31117 27.0123 7.7714C27.0151 8.26003 26.8631 8.6677 26.5563 8.99441C26.2523 9.32111 25.856 9.5285 25.3674 9.61657V9.68475C26.0094 9.76713 26.498 9.99015 26.8333 10.3538C27.1713 10.7146 27.339 11.1663 27.3361 11.7089C27.339 12.2061 27.1955 12.6478 26.9057 13.0342C26.6188 13.4205 26.2225 13.7245 25.7168 13.9461C25.2111 14.1677 24.6316 14.2785 23.9782 14.2785Z" fill="white"/>
</svg>
